<?xml version="1.0" standalone="no"?>
<!DOCTYPE svg PUBLIC "-//W3C//DTD SVG 20010904//EN"
 "http://www.w3.org/TR/2001/REC-SVG-20010904/DTD/svg10.dtd">
<svg version="1.0" xmlns="http://www.w3.org/2000/svg"
 width="180.000000pt" height="180.000000pt" viewBox="0 0 180.000000 180.000000"
 preserveAspectRatio="xMidYMid meet">
<metadata>
Created by potrace 1.14, written by Peter Selinger 2001-2017
</metadata>
<g transform="translate(0.000000,180.000000) scale(0.100000,-0.100000)"
fill="#000000" stroke="none">
<path d="M1113 1587 c-37 -10 -78 -20 -90 -21 -13 0 -23 -4 -23 -7 0 -4 -15
-9 -32 -13 -35 -6 -63 -13 -63 -16 0 -1 -7 -3 -15 -5 -8 -1 -35 -8 -60 -16
-25 -7 -50 -13 -57 -15 -7 -1 -42 -9 -78 -19 -36 -9 -80 -18 -98 -21 -58 -10
-72 -12 -72 -14 0 -1 -9 -3 -20 -5 -94 -17 -145 -26 -175 -29 -19 -3 -53 -8
-75 -11 -76 -13 -110 -91 -64 -149 21 -27 24 -27 98 -22 84 7 130 14 144 23 6
3 7 1 4 -5 -5 -7 9 -6 41 2 26 7 56 12 66 10 11 -1 27 1 35 6 9 4 36 11 61 14
61 7 108 16 150 26 19 5 51 12 70 15 19 4 40 8 45 9 6 1 16 5 23 10 7 4 16 5
19 2 7 -7 119 53 153 81 82 69 133 134 128 164 -4 29 -29 31 -115 6z"/>
<path d="M1730 1389 c0 -4 -17 -13 -37 -19 -21 -6 -47 -15 -58 -20 -59 -27
-145 -58 -145 -53 0 3 -7 0 -15 -7 -8 -6 -19 -9 -25 -5 -5 3 -10 2 -10 -3 0
-7 -121 -52 -142 -53 -4 0 -25 -7 -45 -16 -34 -14 -144 -49 -183 -57 -8 -2
-35 -9 -60 -16 -25 -7 -54 -14 -65 -16 -11 -2 -31 -7 -45 -10 -14 -3 -34 -7
-44 -8 -10 -1 -32 -17 -47 -34 -24 -27 -28 -38 -23 -69 11 -68 42 -80 144 -58
14 3 39 8 55 11 17 2 48 10 70 15 22 6 47 12 55 14 40 8 180 46 215 58 22 8
48 13 58 11 9 -1 17 1 17 5 0 3 30 15 68 25 115 32 195 87 290 200 30 36 46
71 39 89 -6 15 -67 29 -67 16z"/>
<path d="M527 1083 c-8 -7 -162 -16 -308 -18 -209 -3 -224 -8 -215 -67 14 -86
34 -91 402 -92 206 -1 211 -1 245 23 34 23 36 27 36 87 1 53 -2 64 -17 69 -16
5 -138 3 -143 -2z"/>
<path d="M753 818 c-43 -11 -75 -59 -81 -120 -4 -38 -1 -53 14 -69 17 -18 27
-20 84 -16 36 3 76 8 90 12 95 21 343 21 411 0 24 -8 25 -24 2 -24 -19 0 -73
-7 -113 -14 -32 -6 -87 -16 -123 -21 -15 -3 -35 -7 -45 -10 -9 -3 -34 -7 -56
-11 -21 -3 -42 -7 -46 -10 -4 -2 -22 -7 -41 -9 -51 -8 -63 -11 -76 -19 -7 -5
-18 -5 -23 -2 -6 4 -16 2 -23 -3 -7 -6 -30 -13 -52 -17 -119 -21 -342 -218
-318 -282 6 -16 74 -10 139 12 27 9 54 18 59 19 6 2 17 6 25 9 18 7 101 31
115 33 6 0 17 4 25 7 17 7 128 38 150 42 8 2 41 10 72 20 32 9 62 14 68 10 5
-3 10 -2 10 3 0 5 42 17 93 26 50 10 101 20 112 23 11 3 37 6 57 7 21 0 38 4
38 7 0 4 21 9 46 12 100 11 126 97 63 203 -18 30 -38 54 -45 54 -6 0 -23 11
-38 25 -14 13 -26 22 -26 19 0 -3 -16 3 -35 15 -30 18 -114 47 -165 58 -79 17
-317 24 -367 11z"/>
<path d="M441 750 c-38 -9 -64 -52 -69 -115 -6 -77 9 -105 59 -105 21 0 40 4
43 9 3 5 17 12 31 15 65 16 102 103 71 164 -9 18 -22 33 -29 33 -40 5 -85 5
-106 -1z"/>
</g>
</svg>
